<svg width="32" height="32" viewBox="0 0 32 32" fill="none" xmlns="http://www.w3.org/2000/svg">
  <rect width="32" height="32" fill="#171717"/>
  <!-- Morse Code Pattern for KODEDIT -->
  <rect x="4" y="8" width="6" height="3" rx="1.5" fill="#fe3641"/>
  <circle cx="12" cy="9.5" r="1.5" fill="#fe3641"/>
  <rect x="16" y="8" width="6" height="3" rx="1.5" fill="#fe3641"/>
  <rect x="24" y="8" width="3" height="3" rx="1.5" fill="#fe3641"/>
  
  <rect x="4" y="13" width="3" height="3" rx="1.5" fill="#fe3641"/>
  <rect x="9" y="13" width="6" height="3" rx="1.5" fill="#fe3641"/>
  <rect x="17" y="13" width="6" height="3" rx="1.5" fill="#fe3641"/>
  <rect x="25" y="13" width="3" height="3" rx="1.5" fill="#fe3641"/>
  
  <rect x="4" y="18" width="6" height="3" rx="1.5" fill="#fe3641"/>
  <circle cx="12" cy="19.5" r="1.5" fill="#fe3641"/>
  <circle cx="16" cy="19.5" r="1.5" fill="#fe3641"/>
  <circle cx="20" cy="19.5" r="1.5" fill="#fe3641"/>
  <rect x="24" y="18" width="3" height="3" rx="1.5" fill="#fe3641"/>
  
  <rect x="4" y="23" width="3" height="3" rx="1.5" fill="#fe3641"/>
  <circle cx="9" cy="24.5" r="1.5" fill="#fe3641"/>
  <circle cx="13" cy="24.5" r="1.5" fill="#fe3641"/>
  <rect x="17" y="23" width="6" height="3" rx="1.5" fill="#fe3641"/>
</svg>