<svg width="32" height="32" viewBox="0 0 32 32" fill="none" xmlns="http://www.w3.org/2000/svg">
  <rect width="32" height="32" fill="#fe3641"/>
  
  <!-- K in Morse Code -->
  <rect x="3" y="6" width="5" height="2" rx="1" fill="white"/>
  <circle cx="10" cy="7" r="1" fill="white"/>
  <rect x="13" y="6" width="5" height="2" rx="1" fill="white"/>
  
  <!-- Simplified KODEDIT pattern -->
  <rect x="20" y="6" width="3" height="2" rx="1" fill="white"/>
  <rect x="25" y="6" width="2" height="2" rx="1" fill="white"/>
  
  <!-- Second row -->
  <rect x="3" y="11" width="2" height="2" rx="1" fill="white"/>
  <rect x="7" y="11" width="5" height="2" rx="1" fill="white"/>
  <rect x="14" y="11" width="5" height="2" rx="1" fill="white"/>
  <rect x="21" y="11" width="2" height="2" rx="1" fill="white"/>
  <rect x="25" y="11" width="2" height="2" rx="1" fill="white"/>
  
  <!-- Third row -->
  <rect x="3" y="16" width="5" height="2" rx="1" fill="white"/>
  <circle cx="10" cy="17" r="1" fill="white"/>
  <circle cx="13" cy="17" r="1" fill="white"/>
  <circle cx="16" cy="17" r="1" fill="white"/>
  <rect x="20" y="16" width="2" height="2" rx="1" fill="white"/>
  <rect x="24" y="16" width="3" height="2" rx="1" fill="white"/>
  
  <!-- Fourth row -->
  <rect x="3" y="21" width="2" height="2" rx="1" fill="white"/>
  <circle cx="7" cy="22" r="1" fill="white"/>
  <circle cx="10" cy="22" r="1" fill="white"/>
  <rect x="13" y="21" width="5" height="2" rx="1" fill="white"/>
  <rect x="20" y="21" width="5" height="2" rx="1" fill="white"/>
  <rect x="27" y="21" width="2" height="2" rx="1" fill="white"/>
  
  <!-- Small K letter at bottom -->
  <text x="16" y="30" font-family="system-ui, sans-serif" font-size="4" font-weight="900" fill="white" text-anchor="middle">K</text>
</svg>